<svg width="96" height="96" viewBox="0 0 96 96" fill="none" xmlns="http://www.w3.org/2000/svg">
<path d="M96 0H0V71.2258H16.7334C14.1569 75.9375 12.6209 81.295 12.4196 86.9853C10.6049 87.617 9.29032 89.3264 9.29032 91.3548C9.29032 93.9159 11.3745 96 13.9355 96C16.4965 96 18.5806 93.9159 18.5806 91.3548C18.5806 89.3621 17.3125 87.6728 15.5474 87.0147C15.7672 81.2377 17.4921 75.8539 20.3551 71.2258H31.0421C31.3502 74.657 32.688 77.8637 34.8898 80.5161H32.5161V83.6129H35.6129V86.7097H32.5161V89.8064H35.6129V96H60.3871V89.8064H63.4839V86.7097H60.3871V83.6129H63.4839V80.5161H61.1117C63.3135 77.8637 64.6514 74.657 64.9595 71.2258H75.6464C78.5079 75.8539 80.2343 81.2377 80.4542 87.0147C78.6875 87.6728 77.4193 89.3621 77.4193 91.3548C77.4193 93.9159 79.5035 96 82.0645 96C84.6255 96 86.7097 93.9159 86.7097 91.3548C86.7097 89.3264 85.3951 87.617 83.5804 86.9853C83.3791 81.295 81.8446 75.9375 79.2666 71.2258H96V0ZM13.9355 92.9032C13.0823 92.9032 12.3871 92.208 12.3871 91.3548C12.3871 90.5017 13.0823 89.8064 13.9355 89.8064C14.7886 89.8064 15.4839 90.5017 15.4839 91.3548C15.4839 92.208 14.7886 92.9032 13.9355 92.9032ZM82.0645 89.8064C82.9177 89.8064 83.6129 90.5017 83.6129 91.3548C83.6129 92.208 82.9177 92.9032 82.0645 92.9032C81.2113 92.9032 80.5161 92.208 80.5161 91.3548C80.5161 90.5017 81.2113 89.8064 82.0645 89.8064ZM22.5135 68.129C25.8875 63.8648 30.288 60.4475 35.3636 58.2983C32.9667 60.9569 31.3889 64.3633 31.0467 68.129H22.5135ZM57.2903 92.9032H38.7097V89.8064H57.2903V92.9032ZM57.2903 86.7097H38.7097V83.6129H57.2903V86.7097ZM57.7548 79.6212L57.2903 80.0764V80.5161H49.5484V75.6511C52.2116 74.959 54.1935 72.5543 54.1935 69.6774C54.1935 66.2617 51.4157 63.4839 48 63.4839C44.5843 63.4839 41.8064 66.2617 41.8064 69.6774C41.8064 72.5543 43.7884 74.959 46.4516 75.6511V80.5161H38.7097V80.0764L38.2452 79.6212C35.5494 76.975 34.0645 73.4446 34.0645 69.6774C34.0645 61.9943 40.3169 55.7419 48 55.7419C55.6831 55.7419 61.9355 61.9943 61.9355 69.6774C61.9355 73.4446 60.4506 76.975 57.7548 79.6212ZM48 72.7742C46.2921 72.7742 44.9032 71.3853 44.9032 69.6774C44.9032 67.9695 46.2921 66.5806 48 66.5806C49.7079 66.5806 51.0968 67.9695 51.0968 69.6774C51.0968 71.3853 49.7079 72.7742 48 72.7742ZM64.9533 68.129C64.6111 64.3633 63.0333 60.9569 60.6364 58.2983C65.7104 60.4475 70.1125 63.8648 73.4865 68.129H64.9533ZM92.9032 68.129H77.3574C73.6568 62.7484 68.5161 58.4361 62.4975 55.7419H80.801C81.4421 57.5396 83.1453 58.8387 85.1613 58.8387C87.7223 58.8387 89.8064 56.7546 89.8064 54.1935C89.8064 51.6325 87.7223 49.5484 85.1613 49.5484C83.1453 49.5484 81.4421 50.8475 80.801 52.6452H15.199C14.5579 50.8475 12.8547 49.5484 10.8387 49.5484C8.27768 49.5484 6.19355 51.6325 6.19355 54.1935C6.19355 56.7546 8.27768 58.8387 10.8387 58.8387C12.8547 58.8387 14.5579 57.5396 15.199 55.7419H33.5024C27.4839 58.4361 22.3432 62.7484 18.6426 68.129H3.09677V15.4839H92.9032V68.129ZM83.6129 54.1935C83.6129 53.3404 84.3081 52.6452 85.1613 52.6452C86.0145 52.6452 86.7097 53.3404 86.7097 54.1935C86.7097 55.0467 86.0145 55.7419 85.1613 55.7419C84.3081 55.7419 83.6129 55.0467 83.6129 54.1935ZM12.3871 54.1935C12.3871 55.0467 11.6919 55.7419 10.8387 55.7419C9.98555 55.7419 9.29032 55.0467 9.29032 54.1935C9.29032 53.3404 9.98555 52.6452 10.8387 52.6452C11.6919 52.6452 12.3871 53.3404 12.3871 54.1935ZM92.9032 12.3871H3.09677V3.09677H92.9032V12.3871Z" fill="black"/>
<path d="M15.4839 6.19354H6.19354V9.29032H15.4839V6.19354Z" fill="black"/>
<path d="M21.6774 6.19354H18.5806V9.29032H21.6774V6.19354Z" fill="black"/>
<path d="M30.9677 18.5806H6.19354V46.4516H30.9677V18.5806ZM27.871 43.3548H9.29032V21.6774H27.871V43.3548Z" fill="black"/>
<path d="M61.9355 18.5806H34.0645V46.4516H61.9355V18.5806ZM58.8387 43.3548H37.1613V21.6774H58.8387V43.3548Z" fill="black"/>
<path d="M89.8064 18.5806H65.0323V46.4516H89.8064V18.5806ZM86.7097 43.3548H68.129V21.6774H86.7097V43.3548Z" fill="black"/>
</svg>
